<?xml version="1.0" encoding="UTF-8" standalone="no"?>
<svg
   xmlns:dc="http://purl.org/dc/elements/1.1/"
   xmlns:cc="http://creativecommons.org/ns#"
   xmlns:rdf="http://www.w3.org/1999/02/22-rdf-syntax-ns#"
   xmlns:svg="http://www.w3.org/2000/svg"
   xmlns="http://www.w3.org/2000/svg"
   xmlns:sodipodi="http://sodipodi.sourceforge.net/DTD/sodipodi-0.dtd"
   xmlns:inkscape="http://www.inkscape.org/namespaces/inkscape"
   version="1.1"
   id="svg2"
   xml:space="preserve"
   width="348"
   height="137.33333"
   viewBox="0 0 348 137.33333"
   sodipodi:docname="logo.eps"><metadata
     id="metadata8"><rdf:RDF><cc:Work
         rdf:about=""><dc:format>image/svg+xml</dc:format><dc:type
           rdf:resource="http://purl.org/dc/dcmitype/StillImage" /></cc:Work></rdf:RDF></metadata><defs
     id="defs6" /><sodipodi:namedview
     pagecolor="#ffffff"
     bordercolor="#666666"
     borderopacity="1"
     objecttolerance="10"
     gridtolerance="10"
     guidetolerance="10"
     inkscape:pageopacity="0"
     inkscape:pageshadow="2"
     inkscape:window-width="640"
     inkscape:window-height="480"
     id="namedview4" /><g
     id="g10"
     inkscape:groupmode="layer"
     inkscape:label="ink_ext_XXXXXX"
     transform="matrix(1.3333333,0,0,-1.3333333,0,137.33333)"><g
       id="g12"
       transform="scale(0.1)"><path
         d="M 0,1030 H 2610 V 0 H 0 v 1030"
         style="fill:#ffffff;fill-opacity:1;fill-rule:nonzero;stroke:none"
         id="path14" /><g
         id="g16"
         transform="scale(10)"><text
           transform="matrix(1,0,0,-1,97.0098,58.2695)"
           style="font-variant:normal;font-weight:bold;font-size:27.54px;font-family:Cambria;-inkscape-font-specification:Cambria-Bold;writing-mode:lr-tb;fill:#2e3591;fill-opacity:1;fill-rule:nonzero;stroke:none"
           id="text22"><tspan
             x="0 17.956079 35.884621 54.501659 73.201317 91.602333 109.55444 128.26003 144.04665"
             y="0"
             sodipodi:role="line"
             id="tspan18">ABUNDANCE</tspan><tspan
             x="22.5602 36.491394 52.709187 66.506081 84.108582 100.01627 123.32047"
             y="33.049999"
             sodipodi:role="line"
             id="tspan20">SYSTEMS</tspan></text></g><path
         d="m 584,467.996 c -1.004,0 -1.996,0 -3,0 -1,0 -3.004,0 -5,0 -7,0 -12,1.008 -16,4.008 -4,2.996 -6,5.992 -6,12 0,3 1,5 3.996,8 2.004,2 5,2.996 9.008,2.996 5,0 8.996,-0.996 12.996,-2.996 4,-2.004 7.004,-5 10,-9.008 7.996,0 17.004,3 26,9.008 9,5.992 18,13.992 28,25 C 656,531 666,544 672.004,558 c 6.996,14.004 10,26 10,37 0,7.004 -1.004,14 -4.008,20 -2.996,6 -5.992,12.004 -11.996,17.004 -8.004,-7.004 -17,-15 -26,-25 C 631,597.004 620,585 607.996,568 594,550 576,525 555,495 534,464.004 520,444.004 511,435 484,402.996 456,380 427.996,365 400,350 371,342.004 341,342.004 c -23.004,0 -41,3.992 -53.996,12.996 -13.004,7.996 -20,20 -20,34.004 0,8 2.996,15 7.996,20.996 5,5.996 12.004,9.004 20,9.004 6,0 11,-2 15,-6.008 4,-3.992 6,-8.992 6,-13.992 0,-5 -2,-9.004 -5,-11.008 -3.004,-2.996 -7,-3.992 -13.004,-3.992 -1.996,0 -5.992,0.996 -10,1.992 -3.996,2 -6.996,2 -8.996,2 -1.004,0 -1.996,0 -1.996,-0.992 C 276,385.996 276,385 276,384.004 c 0,-8.008 6.004,-15 16.996,-22 11.004,-6.008 24.008,-9.008 39.008,-9.008 12.996,0 25,2.004 35.992,5 12.004,3 23.004,8 33.004,14.008 11.996,7 25,17.996 40,32.996 15,15 35,37.996 60,69.004 6.996,8 16.996,20.996 30,38 C 582.004,576 622.996,619 652.996,641 642.004,648 630,653 617.004,656 604,659 590,661 576,661 547.996,661 521,656 492.996,647.004 465,637.004 439,624 415,606 c -20,-13.996 -35,-30 -45,-45 -10,-15 -16,-31 -16,-46 0,-10.996 3.996,-20 12,-27.996 8,-8 19,-11.008 31.004,-11.008 16.996,0 35.992,7 56.996,21.008 C 475,511 494,530 511,554 c 9,12 16.004,24 21.996,38.004 6.004,13.996 10,20 11.004,20 1,0 2,0 2,-1.004 0,-1 1.004,-2 1.004,-3.996 C 547.004,600 545,591 541,579 c -3.996,-11.996 -8.996,-21.996 -15,-31.996 -16,-26.004 -35,-45 -56,-59.008 -21,-13.992 -44,-20 -69,-20 -17,0 -31,5 -42,14.008 -11.004,8.992 -16.004,20.992 -16.004,35.992 C 342.996,534 349,550 360,567.004 371,584 387.004,600 407.996,616 c 25,18 52.004,32 81.004,42 28.996,10 58.004,15 88.004,15 15.992,0 30.992,-2 45,-5.996 C 636,663 650,657.004 662.996,650 c 10,6 17.004,10 21.004,11 3.996,2 7,3 8.996,3 1.004,0 2.004,0 3.004,-1 1.004,-0.996 1.004,-0.996 1.004,-2 0,-2 -4.008,-6 -12.004,-11 -5,-2.996 -9,-6 -12.004,-7.996 9.008,-9.004 15,-17.004 19.008,-26.004 3.996,-8.996 5.992,-18 5.992,-28 0,-28 -8.996,-52 -27.996,-72 -19,-20.004 -44,-33.996 -76,-41 1,-4.004 3.004,-7.996 3.004,-10.996 0,-3.008 0.992,-7 0.992,-11.008 0,-7 -1.996,-13.992 -5,-22 C 590,424.004 584,415 577.004,407.004 571,400 564,392.004 554,382.004 c -9,-10 -14,-16.008 -14,-19.008 0,-2 1,-2.996 2.004,-3.992 0.992,-1.008 2.996,-1.008 5,-1.008 6.996,0 15.992,3 28.996,9.008 11.996,5.992 26.004,15 40,25.992 6.004,4.008 11.996,10 19,15 7.004,5 11,9.008 12.004,9.008 0.992,0 1.996,0 2.996,-1.008 1,-0.996 1,-1.992 1,-3 0,-2 -2,-3.992 -6,-7.996 -4,-4.004 -10,-9.004 -20,-17.004 -16,-12.996 -31,-22.996 -45,-30 -14,-7 -26,-10.992 -35,-10.992 -7.996,0 -15,2 -19,5 -3.996,3.992 -6,8.992 -6,17 0,10 9,25 26,43 6.004,5.992 10,10.992 14,13.992 9,10 15,17 17.996,23.008 3.004,5.996 5,10.996 5,15 0,0.996 0,3 0,3.992 0,1.008 2.004,-2 1.004,0"
         style="fill:#eb1d27;fill-opacity:1;fill-rule:nonzero;stroke:none"
         id="path24" /><path
         d="M 395,782.004 C 554,839 730,757.004 787.004,598 844,439.004 762.004,262.996 602.996,205.996 444,149.004 269,230.996 211,390 154,549 236,725 395,782.004 Z M 392.004,791 C 556,850 737.004,765 796,601 855,437.004 770,255.996 606,197.004 c -163.996,-59.008 -345,25.992 -403.996,190 -59.008,163.996 25.992,345 190,403.996"
         style="fill:#eb1d27;fill-opacity:1;fill-rule:evenodd;stroke:none"
         id="path26" /><path
         d="M 395,782.004 C 554,839 730,757.004 787.004,598 844,439.004 762.004,262.996 602.996,205.996 444,149.004 269,230.996 211,390 154,549 236,725 395,782.004 Z M 392.004,791 C 556,850 737.004,765 796,601 855,437.004 770,255.996 606,197.004 c -163.996,-59.008 -345,25.992 -403.996,190 -59.008,163.996 25.992,345 190,403.996 z"
         style="fill:none;stroke:#eb1d27;stroke-width:7.5;stroke-linecap:butt;stroke-linejoin:miter;stroke-miterlimit:2.61;stroke-dasharray:none;stroke-opacity:1"
         id="path28" /><path
         d="m 312.898,872.898 87.477,31.571 38.016,-105.348 -87.477,-31.566 -38.016,105.343"
         style="fill:#eb1d27;fill-opacity:1;fill-rule:nonzero;stroke:none"
         id="path30" /><path
         d="m 464.156,803.43 4.34,111.906 92.926,-3.598 -4.344,-111.914 -92.922,3.606"
         style="fill:#eb1d27;fill-opacity:1;fill-rule:nonzero;stroke:none"
         id="path32" /><path
         d="m 584.059,793.645 46.078,102.085 84.765,-38.257 -46.074,-102.086 -84.769,38.258"
         style="fill:#eb1d27;fill-opacity:1;fill-rule:nonzero;stroke:none"
         id="path34" /><path
         d="m 690.293,740.551 81.047,77.316 64.191,-67.297 -81.039,-77.312 -64.199,67.293"
         style="fill:#eb1d27;fill-opacity:1;fill-rule:nonzero;stroke:none"
         id="path36" /><path
         d="m 768.918,650.133 104.145,41.195 34.207,-86.484 -104.149,-41.192 -34.203,86.481"
         style="fill:#eb1d27;fill-opacity:1;fill-rule:nonzero;stroke:none"
         id="path38" /><path
         d="m 806.895,444.543 0.781,92.996 112.004,-0.937 -0.785,-92.997 -112,0.938"
         style="fill:#eb1d27;fill-opacity:1;fill-rule:nonzero;stroke:none"
         id="path40" /><path
         d="m 766.23,332.395 35.649,85.898 103.441,-42.934 -35.648,-85.894 -103.442,42.93"
         style="fill:#eb1d27;fill-opacity:1;fill-rule:nonzero;stroke:none"
         id="path42" /><path
         d="m 686.016,244.031 65.316,66.211 79.731,-78.66 -65.309,-66.199 -79.738,78.648"
         style="fill:#eb1d27;fill-opacity:1;fill-rule:nonzero;stroke:none"
         id="path44" /><path
         d="M 559.758,187.773 647.23,219.348 685.242,113.992 597.77,82.4336 559.758,187.773"
         style="fill:#eb1d27;fill-opacity:1;fill-rule:nonzero;stroke:none"
         id="path46" /><path
         d="m 436.711,75.332 4.359,111.902 92.922,-3.613 -4.351,-111.9101 -92.93,3.6211"
         style="fill:#eb1d27;fill-opacity:1;fill-rule:nonzero;stroke:none"
         id="path48" /><path
         d="m 283.906,129.277 46.078,102.09 84.774,-38.262 -46.082,-102.0894 -84.77,38.2614"
         style="fill:#eb1d27;fill-opacity:1;fill-rule:nonzero;stroke:none"
         id="path50" /><path
         d="m 163.219,237.668 81.043,77.312 64.195,-67.292 -81.039,-77.317 -64.199,67.297"
         style="fill:#eb1d27;fill-opacity:1;fill-rule:nonzero;stroke:none"
         id="path52" /><path
         d="M 90.9688,382.004 195.117,423.191 229.32,336.719 125.172,295.527 90.9688,382.004"
         style="fill:#eb1d27;fill-opacity:1;fill-rule:nonzero;stroke:none"
         id="path54" /><path
         d="m 78.3633,450.195 0.7812,92.996 112.0005,-0.933 -0.778,-93 -112.0037,0.937"
         style="fill:#eb1d27;fill-opacity:1;fill-rule:nonzero;stroke:none"
         id="path56" /><path
         d="M 93.5391,611.508 129.184,697.402 232.633,654.473 196.98,568.578 93.5391,611.508"
         style="fill:#eb1d27;fill-opacity:1;fill-rule:nonzero;stroke:none"
         id="path58" /><path
         d="m 166.793,755.813 65.312,66.203 79.731,-78.657 -65.313,-66.207 -79.73,78.661"
         style="fill:#eb1d27;fill-opacity:1;fill-rule:nonzero;stroke:none"
         id="path60" /><g
         id="g62"
         transform="scale(10)"><text
           transform="matrix(0.94039,0.340097,0.340097,-0.94039,35.9707,79.9102)"
           style="font-variant:normal;font-weight:normal;font-size:8.29679px;font-family:Arial;-inkscape-font-specification:ArialMT;writing-mode:lr-tb;fill:#ffffff;fill-opacity:1;fill-rule:nonzero;stroke:none"
           id="text66"><tspan
             x="0"
             y="0"
             id="tspan64">N</tspan></text><text
           transform="matrix(0.999397,-0.034725,-0.034725,-0.999397,48.0395,83.0105)"
           style="font-variant:normal;font-weight:normal;font-size:8.30002px;font-family:Arial;-inkscape-font-specification:ArialMT;writing-mode:lr-tb;fill:#ffffff;fill-opacity:1;fill-rule:nonzero;stroke:none"
           id="text70"><tspan
             x="0"
             y="0"
             id="tspan68">D</tspan></text><text
           transform="matrix(0.92069,-0.390296,-0.390296,-0.92069,61.2594,80.9211)"
           style="font-variant:normal;font-weight:normal;font-size:8.29389px;font-family:Arial;-inkscape-font-specification:ArialMT;writing-mode:lr-tb;fill:#ffffff;fill-opacity:1;fill-rule:nonzero;stroke:none"
           id="text74"><tspan
             x="0"
             y="0"
             id="tspan72">A</tspan></text><text
           transform="matrix(0.695411,-0.718612,-0.718612,-0.695411,71.8793,74.2605)"
           style="font-variant:normal;font-weight:normal;font-size:8.29986px;font-family:Arial;-inkscape-font-specification:ArialMT;writing-mode:lr-tb;fill:#ffffff;fill-opacity:1;fill-rule:nonzero;stroke:none"
           id="text78"><tspan
             x="0"
             y="0"
             id="tspan76">N</tspan></text><text
           transform="matrix(0.331219,-0.943554,-0.943554,-0.331219,80.1492,64.7219)"
           style="font-variant:normal;font-weight:normal;font-size:8.26833px;font-family:Arial;-inkscape-font-specification:ArialMT;writing-mode:lr-tb;fill:#ffffff;fill-opacity:1;fill-rule:nonzero;stroke:none"
           id="text82"><tspan
             x="0"
             y="0"
             id="tspan80">C</tspan></text><text
           transform="matrix(-0.0669675,-0.997755,-0.997755,0.0669675,84.1207,52.0703)"
           style="font-variant:normal;font-weight:normal;font-size:8.30037px;font-family:Arial;-inkscape-font-specification:ArialMT;writing-mode:lr-tb;fill:#ffffff;fill-opacity:1;fill-rule:nonzero;stroke:none"
           id="text86"><tspan
             x="0"
             y="0"
             id="tspan84">E</tspan></text><text
           transform="matrix(-0.28,-0.96,-0.96,0.28,81.5898,38.6309)"
           style="font-variant:normal;font-weight:normal;font-size:8.3px;font-family:Arial;-inkscape-font-specification:ArialMT;writing-mode:lr-tb;fill:#ffffff;fill-opacity:1;fill-rule:nonzero;stroke:none"
           id="text90"><tspan
             x="0"
             y="0"
             id="tspan88">S</tspan></text><text
           transform="matrix(0.675584,0.737283,0.737283,-0.675584,76.0996,19.0906)"
           style="font-variant:normal;font-weight:normal;font-size:8.30019px;font-family:Arial;-inkscape-font-specification:ArialMT;writing-mode:lr-tb;fill:#ffffff;fill-opacity:1;fill-rule:nonzero;stroke:none"
           id="text94"><tspan
             x="0"
             y="0"
             id="tspan92">M</tspan></text><text
           transform="matrix(0.937153,0.34892,0.34892,-0.937153,60.809,10.9121)"
           style="font-variant:normal;font-weight:normal;font-size:8.32483px;font-family:Arial;-inkscape-font-specification:ArialMT;writing-mode:lr-tb;fill:#ffffff;fill-opacity:1;fill-rule:nonzero;stroke:none"
           id="text98"><tspan
             x="0"
             y="0"
             id="tspan96">E</tspan></text><text
           transform="matrix(0.999397,-0.034725,-0.034725,-0.999397,45.6492,9.53047)"
           style="font-variant:normal;font-weight:normal;font-size:8.30002px;font-family:Arial;-inkscape-font-specification:ArialMT;writing-mode:lr-tb;fill:#ffffff;fill-opacity:1;fill-rule:nonzero;stroke:none"
           id="text102"><tspan
             x="0"
             y="0"
             id="tspan100">T</tspan></text><text
           transform="matrix(0.906597,-0.421998,-0.421998,-0.906597,30.6793,13.9609)"
           style="font-variant:normal;font-weight:normal;font-size:8.30003px;font-family:Arial;-inkscape-font-specification:ArialMT;writing-mode:lr-tb;fill:#ffffff;fill-opacity:1;fill-rule:nonzero;stroke:none"
           id="text106"><tspan
             x="0"
             y="0"
             id="tspan104">S</tspan></text><text
           transform="matrix(0.660619,-0.750722,-0.750722,-0.660619,18.9996,23.7617)"
           style="font-variant:normal;font-weight:normal;font-size:8.29186px;font-family:Arial;-inkscape-font-specification:ArialMT;writing-mode:lr-tb;fill:#ffffff;fill-opacity:1;fill-rule:nonzero;stroke:none"
           id="text110"><tspan
             x="0"
             y="0"
             id="tspan108">Y</tspan></text><text
           transform="matrix(0.328711,-0.944431,-0.944431,-0.328711,11.559,37.1418)"
           style="font-variant:normal;font-weight:normal;font-size:8.29973px;font-family:Arial;-inkscape-font-specification:ArialMT;writing-mode:lr-tb;fill:#ffffff;fill-opacity:1;fill-rule:nonzero;stroke:none"
           id="text114"><tspan
             x="0"
             y="0"
             id="tspan112">S</tspan></text><text
           transform="matrix(-0.0195467,0.999809,0.999809,0.0195467,15.3086,47.3008)"
           style="font-variant:normal;font-weight:normal;font-size:8.29993px;font-family:Arial;-inkscape-font-specification:ArialMT;writing-mode:lr-tb;fill:#ffffff;fill-opacity:1;fill-rule:nonzero;stroke:none"
           id="text118"><tspan
             x="0"
             y="0"
             id="tspan116">A</tspan></text><text
           transform="matrix(0.345001,0.938602,0.938602,-0.345001,17.6184,60.3605)"
           style="font-variant:normal;font-weight:normal;font-size:8.29998px;font-family:Arial;-inkscape-font-specification:ArialMT;writing-mode:lr-tb;fill:#ffffff;fill-opacity:1;fill-rule:nonzero;stroke:none"
           id="text122"><tspan
             x="0"
             y="0"
             id="tspan120">B</tspan></text><text
           transform="matrix(0.671188,0.741287,0.741287,-0.671188,23.9492,71.0801)"
           style="font-variant:normal;font-weight:normal;font-size:8.28565px;font-family:Arial;-inkscape-font-specification:ArialMT;writing-mode:lr-tb;fill:#ffffff;fill-opacity:1;fill-rule:nonzero;stroke:none"
           id="text126"><tspan
             x="0"
             y="0"
             id="tspan124">U</tspan></text></g></g></g></svg>
